<svg xmlns="http://www.w3.org/2000/svg" version="1.1" viewBox="400 400 1250 1250">
  <path d="M 1489.43 714.004 C 1508.16 733.719 1543.87 816.285 1553.65 845.016 C 1569.86 892.596 1582.27 953.73 1583.04 1004.32 C 1589.36 1420.14 1153.19 1712.17 773.488 1522.05 C 758.106 1513.91 725.63 1497.29 712.965 1485.83 C 743.843 1470.72 788.76 1451.13 820.541 1438.13 C 839.767 1447.5 853.797 1453.85 874.033 1460.75 C 989.92 1501.12 1117.21 1492.9 1226.94 1437.97 C 1335.82 1384.16 1425.06 1278.74 1463.89 1163.84 C 1501.38 1049.95 1492.4 925.855 1438.91 818.541 C 1448.22 798.596 1458.44 779.626 1468.26 759.963 C 1475.28 745.899 1481.67 727.207 1489.43 714.004 z"></path>
  <path d="M 1013.55 467.483 C 1129.01 464.296 1240.44 499.195 1337.29 561.198 C 1310.66 574.483 1256.12 597.592 1228.27 607.949 C 1138.89 570.1 1054.35 552.218 956.961 567.418 C 833.649 587.81 723.386 656.092 650.18 757.396 C 577.887 855.646 548.052 978.801 567.365 1099.24 C 574.24 1145.52 589.493 1188.57 609.367 1230.7 C 594.05 1264.1 574.829 1299.93 558.635 1333.62 C 416.296 1114.17 440.399 839.403 618.994 648.138 C 726.034 533.503 856.969 473.698 1013.55 467.483 z"></path>
  <path d="M 1517.18 537.906 L 1518.36 538.317 C 1517 543.741 1493.69 581.848 1489.06 589.585 C 1451.81 651.877 1418.4 715.157 1384.47 779.237 L 1193.74 1142.45 C 1181.4 1129.35 1168.43 1118.09 1155.91 1105.52 C 1135.79 1085.3 1115.86 1065.73 1095.26 1045.97 L 1264.42 787.909 L 1263.62 787.264 C 1198.62 826.801 1134.37 870.402 1069.41 910.273 C 1047.42 923.769 1026.55 939.176 1003.89 952.232 C 972.628 920.406 934.569 885.71 904.962 853.605 C 937.439 835.621 970.317 819.677 1003.35 802.808 L 1158.05 723.666 L 1517.18 537.906 z"></path>
  <path d="M 854.999 905.518 C 864.985 913.508 877.181 926.864 886.443 935.981 C 908.241 957.437 929.553 980.129 952.316 1000.58 C 895.567 1088.05 839.202 1178.48 781.582 1264.9 C 839.205 1230.02 894.234 1191.55 951.018 1155.38 C 981.625 1135.88 1012.3 1115.96 1042.3 1095.57 C 1076.41 1128.39 1109.19 1162.51 1143.22 1195.39 C 1114.26 1208.48 1092.08 1221.3 1064.3 1235.53 L 939.491 1299.07 C 838.833 1350.14 738.559 1401.96 638.678 1454.53 C 617.971 1465.33 597.198 1476.09 576.571 1487.03 C 560.199 1495.71 544.223 1505.18 527.6 1513.41 C 549.865 1472.22 576.855 1430.3 599.692 1388.78 C 638.688 1317.89 675.401 1245.72 713.593 1174.55 C 743.791 1119.12 773.304 1063.33 802.127 1007.18 C 820.168 972.865 838.055 940.475 854.999 905.518 z"></path>
</svg>
